<mxfile host="app.diagrams.net" modified="2023-04-19T08:34:39.716Z" agent="Mozilla/5.0 (Windows NT 10.0; Win64; x64) AppleWebKit/537.36 (KHTML, like Gecko) Chrome/112.0.0.0 Safari/537.36" etag="zlL502wuxic59aPoWbn2" version="21.1.9" type="github">
  <diagram name="第 1 页" id="JjgRdyOEP7qB3Ht1PhTI">
    <mxGraphModel dx="1434" dy="477" grid="0" gridSize="10" guides="1" tooltips="1" connect="1" arrows="1" fold="1" page="0" pageScale="1" pageWidth="827" pageHeight="1169" math="0" shadow="0">
      <root>
        <mxCell id="0" />
        <mxCell id="1" parent="0" />
        <mxCell id="nwZdZ1ILhEK_ZbMS1B_8-13" style="edgeStyle=orthogonalEdgeStyle;rounded=0;orthogonalLoop=1;jettySize=auto;html=1;entryX=0;entryY=0.5;entryDx=0;entryDy=0;" edge="1" parent="1" source="nwZdZ1ILhEK_ZbMS1B_8-12" target="nwZdZ1ILhEK_ZbMS1B_8-5">
          <mxGeometry relative="1" as="geometry">
            <Array as="points">
              <mxPoint x="-146" y="220" />
              <mxPoint x="-146" y="310" />
            </Array>
          </mxGeometry>
        </mxCell>
        <mxCell id="H0j_Gy7QNaVPxEVOqmRl-1" value="&lt;font style=&quot;font-size: 14px;&quot;&gt;1. 采用HAGEN中的自适应图 + 同质性约束：不同regison的相关性&lt;br&gt;（1）基于地理信息、POI信息等，使用Node2Vec预训练region embedding&lt;br&gt;（2）设计graph learning layer&lt;br&gt;&lt;/font&gt;" style="text;html=1;strokeColor=none;fillColor=none;align=left;verticalAlign=middle;whiteSpace=wrap;rounded=0;" parent="1" vertex="1">
          <mxGeometry x="-226" y="97" width="511" height="80" as="geometry" />
        </mxCell>
        <mxCell id="nwZdZ1ILhEK_ZbMS1B_8-6" style="edgeStyle=orthogonalEdgeStyle;rounded=0;orthogonalLoop=1;jettySize=auto;html=1;entryX=0;entryY=0.5;entryDx=0;entryDy=0;" edge="1" parent="1" source="nwZdZ1ILhEK_ZbMS1B_8-1" target="nwZdZ1ILhEK_ZbMS1B_8-5">
          <mxGeometry relative="1" as="geometry">
            <Array as="points">
              <mxPoint x="-146" y="265" />
              <mxPoint x="-146" y="310" />
            </Array>
          </mxGeometry>
        </mxCell>
        <mxCell id="nwZdZ1ILhEK_ZbMS1B_8-1" value="POI" style="rounded=1;whiteSpace=wrap;html=1;" vertex="1" parent="1">
          <mxGeometry x="-226" y="250" width="44" height="29" as="geometry" />
        </mxCell>
        <mxCell id="nwZdZ1ILhEK_ZbMS1B_8-7" style="edgeStyle=orthogonalEdgeStyle;rounded=0;orthogonalLoop=1;jettySize=auto;html=1;" edge="1" parent="1" source="nwZdZ1ILhEK_ZbMS1B_8-2" target="nwZdZ1ILhEK_ZbMS1B_8-5">
          <mxGeometry relative="1" as="geometry" />
        </mxCell>
        <mxCell id="nwZdZ1ILhEK_ZbMS1B_8-2" value="Risk" style="rounded=1;whiteSpace=wrap;html=1;" vertex="1" parent="1">
          <mxGeometry x="-226" y="295" width="44" height="29" as="geometry" />
        </mxCell>
        <mxCell id="nwZdZ1ILhEK_ZbMS1B_8-8" style="edgeStyle=orthogonalEdgeStyle;rounded=0;orthogonalLoop=1;jettySize=auto;html=1;entryX=0;entryY=0.5;entryDx=0;entryDy=0;" edge="1" parent="1" source="nwZdZ1ILhEK_ZbMS1B_8-3" target="nwZdZ1ILhEK_ZbMS1B_8-5">
          <mxGeometry relative="1" as="geometry">
            <Array as="points">
              <mxPoint x="-146" y="355" />
              <mxPoint x="-146" y="310" />
            </Array>
          </mxGeometry>
        </mxCell>
        <mxCell id="nwZdZ1ILhEK_ZbMS1B_8-9" value="Pre-train: node2vec" style="edgeLabel;html=1;align=center;verticalAlign=middle;resizable=0;points=[];" vertex="1" connectable="0" parent="nwZdZ1ILhEK_ZbMS1B_8-8">
          <mxGeometry x="0.3286" relative="1" as="geometry">
            <mxPoint x="-6" y="-1" as="offset" />
          </mxGeometry>
        </mxCell>
        <mxCell id="nwZdZ1ILhEK_ZbMS1B_8-3" value="Road..." style="rounded=1;whiteSpace=wrap;html=1;" vertex="1" parent="1">
          <mxGeometry x="-226" y="340" width="44" height="29" as="geometry" />
        </mxCell>
        <mxCell id="nwZdZ1ILhEK_ZbMS1B_8-11" style="edgeStyle=orthogonalEdgeStyle;rounded=0;orthogonalLoop=1;jettySize=auto;html=1;" edge="1" parent="1" source="nwZdZ1ILhEK_ZbMS1B_8-5" target="nwZdZ1ILhEK_ZbMS1B_8-10">
          <mxGeometry relative="1" as="geometry" />
        </mxCell>
        <mxCell id="nwZdZ1ILhEK_ZbMS1B_8-5" value="Region Embedding" style="rounded=1;whiteSpace=wrap;html=1;" vertex="1" parent="1">
          <mxGeometry x="-16" y="295" width="123" height="29" as="geometry" />
        </mxCell>
        <mxCell id="nwZdZ1ILhEK_ZbMS1B_8-10" value="Region Graph Learning" style="rounded=1;whiteSpace=wrap;html=1;" vertex="1" parent="1">
          <mxGeometry x="165" y="295" width="123" height="29" as="geometry" />
        </mxCell>
        <mxCell id="nwZdZ1ILhEK_ZbMS1B_8-12" value="Weather" style="rounded=1;whiteSpace=wrap;html=1;" vertex="1" parent="1">
          <mxGeometry x="-226" y="205" width="44" height="29" as="geometry" />
        </mxCell>
        <mxCell id="nwZdZ1ILhEK_ZbMS1B_8-14" value="&lt;font style=&quot;font-size: 14px;&quot;&gt;2. 采用STEP中的预训练思路来捕获每个segment的表示，获得长期历史趋势&lt;br&gt;&lt;/font&gt;" style="text;html=1;strokeColor=none;fillColor=none;align=left;verticalAlign=middle;whiteSpace=wrap;rounded=0;" vertex="1" parent="1">
          <mxGeometry x="-226" y="424" width="511" height="80" as="geometry" />
        </mxCell>
        <mxCell id="nwZdZ1ILhEK_ZbMS1B_8-18" style="edgeStyle=orthogonalEdgeStyle;rounded=0;orthogonalLoop=1;jettySize=auto;html=1;entryX=0;entryY=0.5;entryDx=0;entryDy=0;" edge="1" parent="1" source="nwZdZ1ILhEK_ZbMS1B_8-16" target="nwZdZ1ILhEK_ZbMS1B_8-17">
          <mxGeometry relative="1" as="geometry" />
        </mxCell>
        <mxCell id="nwZdZ1ILhEK_ZbMS1B_8-19" value="pre-trained stage" style="edgeLabel;html=1;align=center;verticalAlign=middle;resizable=0;points=[];" vertex="1" connectable="0" parent="nwZdZ1ILhEK_ZbMS1B_8-18">
          <mxGeometry x="-0.1337" y="4" relative="1" as="geometry">
            <mxPoint x="14" y="3" as="offset" />
          </mxGeometry>
        </mxCell>
        <mxCell id="nwZdZ1ILhEK_ZbMS1B_8-16" value="Original time series" style="rounded=1;whiteSpace=wrap;html=1;" vertex="1" parent="1">
          <mxGeometry x="-226" y="524" width="123" height="29" as="geometry" />
        </mxCell>
        <mxCell id="nwZdZ1ILhEK_ZbMS1B_8-17" value="generates representations" style="rounded=1;whiteSpace=wrap;html=1;" vertex="1" parent="1">
          <mxGeometry x="94" y="524" width="123" height="29" as="geometry" />
        </mxCell>
        <mxCell id="nwZdZ1ILhEK_ZbMS1B_8-30" style="rounded=0;orthogonalLoop=1;jettySize=auto;html=1;entryX=0;entryY=0.5;entryDx=0;entryDy=0;" edge="1" parent="1" source="nwZdZ1ILhEK_ZbMS1B_8-20" target="nwZdZ1ILhEK_ZbMS1B_8-25">
          <mxGeometry relative="1" as="geometry" />
        </mxCell>
        <mxCell id="nwZdZ1ILhEK_ZbMS1B_8-20" value="" style="rounded=1;whiteSpace=wrap;html=1;" vertex="1" parent="1">
          <mxGeometry x="-211" y="674" width="211.5" height="108" as="geometry" />
        </mxCell>
        <mxCell id="nwZdZ1ILhEK_ZbMS1B_8-21" value="input embedding" style="rounded=0;whiteSpace=wrap;html=1;" vertex="1" parent="1">
          <mxGeometry x="-194" y="749" width="175" height="25" as="geometry" />
        </mxCell>
        <mxCell id="nwZdZ1ILhEK_ZbMS1B_8-22" value="learnable position encoding" style="rounded=0;whiteSpace=wrap;html=1;" vertex="1" parent="1">
          <mxGeometry x="-194" y="718" width="175" height="25" as="geometry" />
        </mxCell>
        <mxCell id="nwZdZ1ILhEK_ZbMS1B_8-23" value="transformer blocks" style="rounded=0;whiteSpace=wrap;html=1;" vertex="1" parent="1">
          <mxGeometry x="-194" y="684" width="175" height="25" as="geometry" />
        </mxCell>
        <mxCell id="nwZdZ1ILhEK_ZbMS1B_8-24" value="Encoder" style="text;html=1;strokeColor=none;fillColor=none;align=center;verticalAlign=middle;whiteSpace=wrap;rounded=0;" vertex="1" parent="1">
          <mxGeometry x="-211" y="644" width="60" height="30" as="geometry" />
        </mxCell>
        <mxCell id="nwZdZ1ILhEK_ZbMS1B_8-25" value="" style="rounded=1;whiteSpace=wrap;html=1;" vertex="1" parent="1">
          <mxGeometry x="40" y="674" width="190" height="105" as="geometry" />
        </mxCell>
        <mxCell id="nwZdZ1ILhEK_ZbMS1B_8-27" value="transformer blocks" style="rounded=0;whiteSpace=wrap;html=1;" vertex="1" parent="1">
          <mxGeometry x="48" y="720" width="175" height="25" as="geometry" />
        </mxCell>
        <mxCell id="nwZdZ1ILhEK_ZbMS1B_8-28" value="prediction layer" style="rounded=0;whiteSpace=wrap;html=1;" vertex="1" parent="1">
          <mxGeometry x="48" y="689" width="175" height="25" as="geometry" />
        </mxCell>
        <mxCell id="nwZdZ1ILhEK_ZbMS1B_8-29" value="Decoder" style="text;html=1;strokeColor=none;fillColor=none;align=center;verticalAlign=middle;whiteSpace=wrap;rounded=0;" vertex="1" parent="1">
          <mxGeometry x="170" y="644" width="60" height="30" as="geometry" />
        </mxCell>
        <mxCell id="nwZdZ1ILhEK_ZbMS1B_8-31" value="" style="endArrow=none;dashed=1;html=1;dashPattern=1 3;strokeWidth=2;rounded=0;exitX=0;exitY=0;exitDx=0;exitDy=0;" edge="1" parent="1" source="nwZdZ1ILhEK_ZbMS1B_8-24">
          <mxGeometry width="50" height="50" relative="1" as="geometry">
            <mxPoint x="192" y="730" as="sourcePoint" />
            <mxPoint x="-48" y="540" as="targetPoint" />
          </mxGeometry>
        </mxCell>
        <mxCell id="nwZdZ1ILhEK_ZbMS1B_8-32" value="" style="endArrow=none;dashed=1;html=1;dashPattern=1 3;strokeWidth=2;rounded=0;exitX=1;exitY=0;exitDx=0;exitDy=0;" edge="1" parent="1" source="nwZdZ1ILhEK_ZbMS1B_8-29">
          <mxGeometry width="50" height="50" relative="1" as="geometry">
            <mxPoint x="173" y="616" as="sourcePoint" />
            <mxPoint x="40" y="539" as="targetPoint" />
          </mxGeometry>
        </mxCell>
      </root>
    </mxGraphModel>
  </diagram>
</mxfile>
